<svg width="1600" height="500" viewBox="0 0 1600 500" fill="none" xmlns="http://www.w3.org/2000/svg">
  <defs>
    <linearGradient id="bg" x1="0" y1="0" x2="1600" y2="500" gradientUnits="userSpaceOnUse">
      <stop stop-color="#06111F"/>
      <stop offset="0.55" stop-color="#0F2440"/>
      <stop offset="1" stop-color="#152C52"/>
    </linearGradient>
    <linearGradient id="accent" x1="320" y1="80" x2="1280" y2="420" gradientUnits="userSpaceOnUse">
      <stop stop-color="#6EE7FF"/>
      <stop offset="0.5" stop-color="#8B5CF6"/>
      <stop offset="1" stop-color="#FF8A3D"/>
    </linearGradient>
    <filter id="blur" x="-20%" y="-20%" width="140%" height="140%">
      <feGaussianBlur stdDeviation="26"/>
    </filter>
    <radialGradient id="glow" cx="0" cy="0" r="1" gradientUnits="userSpaceOnUse" gradientTransform="translate(800 250) rotate(90) scale(260 520)">
      <stop stop-color="#7DD3FC" stop-opacity="0.24"/>
      <stop offset="1" stop-color="#7DD3FC" stop-opacity="0"/>
    </radialGradient>
  </defs>

  <rect width="1600" height="500" rx="36" fill="url(#bg)"/>
  <rect width="1600" height="500" rx="36" fill="url(#glow)"/>

  <circle cx="260" cy="110" r="90" fill="#7C3AED" fill-opacity="0.18" filter="url(#blur)"/>
  <circle cx="1360" cy="118" r="110" fill="#22D3EE" fill-opacity="0.14" filter="url(#blur)"/>
  <circle cx="1380" cy="380" r="130" fill="#F97316" fill-opacity="0.12" filter="url(#blur)"/>
  <circle cx="250" cy="390" r="120" fill="#38BDF8" fill-opacity="0.12" filter="url(#blur)"/>

  <path d="M0 390C180 330 280 336 420 382C560 428 700 450 860 414C1020 378 1140 320 1260 306C1380 292 1490 326 1600 374V500H0V390Z" fill="#07131F" fill-opacity="0.92"/>
  <path d="M0 414C166 356 286 353 430 392C574 431 708 448 860 417C1012 386 1138 336 1268 321C1398 306 1500 331 1600 364" stroke="url(#accent)" stroke-width="4" stroke-linecap="round" stroke-opacity="0.9"/>

  <g opacity="0.92">
    <rect x="92" y="82" width="130" height="130" rx="28" fill="#0B1730" stroke="url(#accent)" stroke-width="3"/>
    <path d="M126 170L158 115L186 151L206 130L223 170H126Z" fill="#E0F2FE"/>
    <circle cx="171" cy="130" r="10" fill="#7DD3FC"/>
    <path d="M108 224H210" stroke="#94A3B8" stroke-opacity="0.45" stroke-width="3" stroke-linecap="round"/>
  </g>

  <text x="280" y="154" fill="#F8FAFC" font-family="Segoe UI, Arial, sans-serif" font-size="72" font-weight="800" letter-spacing="1">
    Game Store
  </text>
  <text x="282" y="210" fill="#C7D2FE" font-family="Segoe UI, Arial, sans-serif" font-size="28" font-weight="500">
    Browse, wishlist, review, collect, and manage your games in one place.
  </text>

  <g transform="translate(282 264)">
    <rect width="168" height="46" rx="23" fill="#0F172A" fill-opacity="0.86" stroke="#38BDF8" stroke-opacity="0.7"/>
    <text x="84" y="30" text-anchor="middle" fill="#E2E8F0" font-family="Segoe UI, Arial, sans-serif" font-size="18" font-weight="700">
      PHP + MySQL
    </text>
  </g>

  <g transform="translate(468 264)">
    <rect width="184" height="46" rx="23" fill="#0F172A" fill-opacity="0.86" stroke="#A78BFA" stroke-opacity="0.7"/>
    <text x="92" y="30" text-anchor="middle" fill="#E2E8F0" font-family="Segoe UI, Arial, sans-serif" font-size="18" font-weight="700">
      XAMPP Ready
    </text>
  </g>

  <g transform="translate(666 264)">
    <rect width="184" height="46" rx="23" fill="#0F172A" fill-opacity="0.86" stroke="#FB923C" stroke-opacity="0.7"/>
    <text x="92" y="30" text-anchor="middle" fill="#E2E8F0" font-family="Segoe UI, Arial, sans-serif" font-size="18" font-weight="700">
      Git LFS Media
    </text>
  </g>

  <g transform="translate(1140 86)" opacity="0.9">
    <rect width="280" height="280" rx="32" fill="#08111E" fill-opacity="0.76" stroke="#334155" stroke-opacity="0.7"/>
    <rect x="26" y="26" width="228" height="170" rx="22" fill="#0B1730" stroke="#1D4ED8" stroke-opacity="0.35"/>
    <circle cx="78" cy="78" r="12" fill="#22C55E"/>
    <circle cx="114" cy="78" r="12" fill="#F59E0B"/>
    <circle cx="150" cy="78" r="12" fill="#EF4444"/>
    <path d="M54 150H222" stroke="#94A3B8" stroke-opacity="0.45" stroke-width="3" stroke-linecap="round"/>
    <path d="M54 176H176" stroke="#7DD3FC" stroke-opacity="0.9" stroke-width="5" stroke-linecap="round"/>
    <path d="M54 106H168" stroke="#C4B5FD" stroke-opacity="0.8" stroke-width="5" stroke-linecap="round"/>
    <rect x="26" y="212" width="228" height="42" rx="21" fill="#111827"/>
    <text x="140" y="239" text-anchor="middle" fill="#E2E8F0" font-family="Segoe UI, Arial, sans-serif" font-size="16" font-weight="700">
      Explore. Collect. Play.
    </text>
  </g>
</svg>
